# xmcd
#
# Track frame offsets:
#	150
#	14758
#	27677
#	43297
#	55343
#	68107
#	83332
#	94794
#	105579
#	121695
#	134854
#	147171
#	164220
#	180920
#	196130
#	209993
#
# Disc length: 2971 seconds
#
# Revision: 1
# Processed by: cddbd v1.4PL0 Copyright (c) Steve Scherf et al.
# Submitted via: audiograbber 1.82.02
#
DISCID=f10b9910
DTITLE=Emmylou Harris and Carl Jackson - Memories
DYEAR=2002
DGENRE=Country
TTITLE0=To Keep Your Memory Green
TTITLE1=When Mr Blue Moon Turns to Gold Again
TTITLE2=Nobody's Carling But Mine
TTITLE3=The Best We Could Do
TTITLE4=We Must Have Been Out of Our MInds
TTITLE5=Dyin' On Sorrow's Wine
TTITLE6=I Take The Chance
TTITLE7=Something Draws Me To You
TTITLE8=Gone, Gone, GOne
TTITLE9=Under Your Spell Again
TTITLE10=I'll Never Love Another
TTITLE11=I've Always Needed You
TTITLE12=Walk Through This World With Me
TTITLE13=You Made a Memory of Me
TTITLE14=Before I Met You
TTITLE15=Silver Haired Daddy of Mine
EXTD=
EXTT0=
EXTT1=
EXTT2=
EXTT3=
EXTT4=
EXTT5=
EXTT6=
EXTT7=
EXTT8=
EXTT9=
EXTT10=
EXTT11=
EXTT12=
EXTT13=
EXTT14=
EXTT15=
PLAYORDER=
